{
    "asset" : {
        "generator" : "Khronos glTF Blender I/O v1.8.6",
        "version" : "2.0"
    },
    "scene" : 0,
    "scenes" : [
        {
            "name" : "Scene",
            "nodes" : [
                0
            ]
        }
    ],
    "nodes" : [
        {
            "mesh" : 0,
            "name" : "Cone"
        }
    ],
    "meshes" : [
        {
            "name" : "Cone.003",
            "primitives" : [
                {
                    "attributes" : {
                        "POSITION" : 0,
                        "NORMAL" : 1,
                        "TEXCOORD_0" : 2
                    },
                    "indices" : 3
                }
            ]
        }
    ],
    "accessors" : [
        {
            "bufferView" : 0,
            "componentType" : 5126,
            "count" : 6656,
            "max" : [
                1.1894036531448364,
                0.2900000214576721,
                1.1894036531448364
            ],
            "min" : [
                -1.1894036531448364,
                -0.2900000214576721,
                -1.1894036531448364
            ],
            "type" : "VEC3"
        },
        {
            "bufferView" : 1,
            "componentType" : 5126,
            "count" : 6656,
            "type" : "VEC3"
        },
        {
            "bufferView" : 2,
            "componentType" : 5126,
            "count" : 6656,
            "type" : "VEC2"
        },
        {
            "bufferView" : 3,
            "componentType" : 5123,
            "count" : 10740,
            "type" : "SCALAR"
        }
    ],
    "bufferViews" : [
        {
            "buffer" : 0,
            "byteLength" : 79872,
            "byteOffset" : 0
        },
        {
            "buffer" : 0,
            "byteLength" : 79872,
            "byteOffset" : 79872
        },
        {
            "buffer" : 0,
            "byteLength" : 53248,
            "byteOffset" : 159744
        },
        {
            "buffer" : 0,
            "byteLength" : 21480,
            "byteOffset" : 212992
        }
    ],
    "buffers" : [
        {
            "byteLength" : 234472,
            "uri" : "data:application/octet-stream;base64,"
        }
    ]
}
