{
    "asset" : {
        "generator" : "Khronos glTF Blender I/O v1.8.6",
        "version" : "2.0"
    },
    "scene" : 0,
    "scenes" : [
        {
            "name" : "Scene",
            "nodes" : [
                0
            ]
        }
    ],
    "nodes" : [
        {
            "mesh" : 0,
            "name" : "Sphere.003",
            "translation" : [
                0.6094567775726318,
                0.24000000953674316,
                -0.0024274587631225586
            ]
        }
    ],
    "meshes" : [
        {
            "name" : "Sphere.005",
            "primitives" : [
                {
                    "attributes" : {
                        "POSITION" : 0,
                        "NORMAL" : 1,
                        "TEXCOORD_0" : 2
                    },
                    "indices" : 3
                }
            ]
        }
    ],
    "accessors" : [
        {
            "bufferView" : 0,
            "componentType" : 5126,
            "count" : 16576,
            "max" : [
                0.5799468755722046,
                0.0865384042263031,
                1.191831111907959
            ],
            "min" : [
                -1.7988604307174683,
                -0.5300000309944153,
                -1.1869761943817139
            ],
            "type" : "VEC3"
        },
        {
            "bufferView" : 1,
            "componentType" : 5126,
            "count" : 16576,
            "type" : "VEC3"
        },
        {
            "bufferView" : 2,
            "componentType" : 5126,
            "count" : 16576,
            "type" : "VEC2"
        },
        {
            "bufferView" : 3,
            "componentType" : 5123,
            "count" : 25140,
            "type" : "SCALAR"
        }
    ],
    "bufferViews" : [
        {
            "buffer" : 0,
            "byteLength" : 198912,
            "byteOffset" : 0
        },
        {
            "buffer" : 0,
            "byteLength" : 198912,
            "byteOffset" : 198912
        },
        {
            "buffer" : 0,
            "byteLength" : 132608,
            "byteOffset" : 397824
        },
        {
            "buffer" : 0,
            "byteLength" : 50280,
            "byteOffset" : 530432
        }
    ],
    "buffers" : [
        {
            "byteLength" : 580712,
            "uri" : "data:application/octet-stream;base64,"
        }
    ]
}
