{
    "asset" : {
        "generator" : "Khronos glTF Blender I/O v1.8.6",
        "version" : "2.0"
    },
    "scene" : 0,
    "scenes" : [
        {
            "name" : "Scene",
            "nodes" : [
                0
            ]
        }
    ],
    "nodes" : [
        {
            "mesh" : 0,
            "name" : "Sphere",
            "translation" : [
                0.03855818510055542,
                -3.2893919944763184,
                0.09440149366855621
            ]
        }
    ],
    "meshes" : [
        {
            "name" : "Sphere.006",
            "primitives" : [
                {
                    "attributes" : {
                        "POSITION" : 0,
                        "NORMAL" : 1,
                        "TEXCOORD_0" : 2
                    },
                    "indices" : 3
                }
            ]
        }
    ],
    "accessors" : [
        {
            "bufferView" : 0,
            "componentType" : 5126,
            "count" : 7936,
            "max" : [
                6.929532051086426,
                14.629215240478516,
                6.929532051086426
            ],
            "min" : [
                -6.929527759552002,
                3.5839364528656006,
                -6.929531574249268
            ],
            "type" : "VEC3"
        },
        {
            "bufferView" : 1,
            "componentType" : 5126,
            "count" : 7936,
            "type" : "VEC3"
        },
        {
            "bufferView" : 2,
            "componentType" : 5126,
            "count" : 7936,
            "type" : "VEC2"
        },
        {
            "bufferView" : 3,
            "componentType" : 5123,
            "count" : 12576,
            "type" : "SCALAR"
        }
    ],
    "bufferViews" : [
        {
            "buffer" : 0,
            "byteLength" : 95232,
            "byteOffset" : 0
        },
        {
            "buffer" : 0,
            "byteLength" : 95232,
            "byteOffset" : 95232
        },
        {
            "buffer" : 0,
            "byteLength" : 63488,
            "byteOffset" : 190464
        },
        {
            "buffer" : 0,
            "byteLength" : 25152,
            "byteOffset" : 253952
        }
    ],
    "buffers" : [
        {
            "byteLength" : 279104,
            "uri" : "data:application/octet-stream;base64,"
        }
    ]
}
